{
  "accessors": [
    {
      "bufferView": 2,
      "componentType": 5126,
      "count": 3654,
      "max": [
        0.36433476209640503,
        2.944526195526123,
        0.5038303136825562
      ],
      "min": [
        -0.36433476209640503,
        -1.4733303785324097,
        -0.5343942642211914
      ],
      "type": "VEC3"
    },
    {
      "bufferView": 2,
      "byteOffset": 43848,
      "componentType": 5126,
      "count": 3654,
      "max": [
        1.0,
        1.0,
        1.0
      ],
      "min": [
        -1.0,
        -1.0,
        -1.0
      ],
      "type": "VEC3"
    },
    {
      "bufferView": 1,
      "componentType": 5126,
      "count": 3654,
      "max": [
        0.9975796937942505,
        0.9931461215019226
      ],
      "min": [
        0.0,
        0.0
      ],
      "type": "VEC2"
    },
    {
      "bufferView": 0,
      "componentType": 5125,
      "count": 5796,
      "type": "SCALAR"
    }
  ],
  "asset": {
    "extras": {
      "author": "indierocktopus (https://sketchfab.com/indierocktopus)",
      "license": "CC-BY-4.0 (http://creativecommons.org/licenses/by/4.0/)",
      "source": "https://sketchfab.com/3d-models/celly-mcphoneface-708c7214aa7f4c30b5656f046be7ba1a",
      "title": "Celly McPhoneFace"
    },
    "generator": "Sketchfab-12.66.0",
    "version": "2.0"
  },
  "bufferViews": [
    {
      "buffer": 0,
      "byteLength": 23184,
      "name": "floatBufferViews",
      "target": 34963
    },
    {
      "buffer": 0,
      "byteLength": 29232,
      "byteOffset": 23184,
      "byteStride": 8,
      "name": "floatBufferViews",
      "target": 34962
    },
    {
      "buffer": 0,
      "byteLength": 87696,
      "byteOffset": 52416,
      "byteStride": 12,
      "name": "floatBufferViews",
      "target": 34962
    }
  ],
  "buffers": [
    {
      "byteLength": 140112,
      "uri": "scene.bin"
    }
  ],
  "images": [
    {
      "uri": "textures/default_material_baseColor.jpeg"
    }
  ],
  "materials": [
    {
      "doubleSided": true,
      "emissiveFactor": [
        0.6269054878048781,
        0.6269054878048781,
        0.6269054878048781
      ],
      "emissiveTexture": {
        "index": 0
      },
      "name": "default_material",
      "pbrMetallicRoughness": {
        "baseColorTexture": {
          "index": 0
        },
        "metallicFactor": 0.8919588414634148,
        "roughnessFactor": 0.09927591463414634
      }
    }
  ],
  "meshes": [
    {
      "name": "Phono_default_material_0",
      "primitives": [
        {
          "attributes": {
            "NORMAL": 1,
            "POSITION": 0,
            "TEXCOORD_0": 2
          },
          "indices": 3,
          "material": 0,
          "mode": 4
        }
      ]
    }
  ],
  "nodes": [
    {
      "children": [
        1
      ],
      "matrix": [
        0.11712657660245895,
        0.0,
        0.0,
        0.0,
        0.0,
        2.6007324427914414e-17,
        -0.11712657660245895,
        0.0,
        0.0,
        0.11712657660245895,
        2.6007324427914414e-17,
        0.0,
        0.0,
        0.0,
        0.0,
        1.0
      ],
      "name": "Sketchfab_model"
    },
    {
      "children": [
        2
      ],
      "matrix": [
        1.0,
        0.0,
        0.0,
        0.0,
        0.0,
        0.0,
        1.0,
        0.0,
        0.0,
        -1.0,
        0.0,
        0.0,
        0.0,
        0.0,
        0.0,
        1.0
      ],
      "name": "cc52b426a28f4c439ff578ac0ed4ab1b.fbx"
    },
    {
      "children": [
        3
      ],
      "name": "RootNode"
    },
    {
      "children": [
        4
      ],
      "name": "Phono"
    },
    {
      "mesh": 0,
      "name": "Phono_default_material_0"
    }
  ],
  "samplers": [
    {
      "magFilter": 9729,
      "minFilter": 9987,
      "wrapS": 10497,
      "wrapT": 10497
    }
  ],
  "scene": 0,
  "scenes": [
    {
      "name": "Sketchfab_Scene",
      "nodes": [
        0
      ]
    }
  ],
  "textures": [
    {
      "sampler": 0,
      "source": 0
    }
  ]
}
