{
  "accessors": [
    {
      "bufferView": 2,
      "componentType": 5126,
      "count": 38398,
      "max": [
        1.5743989944458008,
        0.25937798619270325,
        0.062352001667022705
      ],
      "min": [
        0.002633000025525689,
        0.24062199890613556,
        -3.9374210834503174
      ],
      "type": "VEC3"
    },
    {
      "bufferView": 2,
      "byteOffset": 460776,
      "componentType": 5126,
      "count": 38398,
      "max": [
        0.0,
        1.0,
        0.0
      ],
      "min": [
        0.0,
        -1.0,
        0.0
      ],
      "type": "VEC3"
    },
    {
      "bufferView": 1,
      "componentType": 5126,
      "count": 38398,
      "max": [
        0.9999989867210388,
        1.0
      ],
      "min": [
        9.999999974752427e-07,
        -0.0
      ],
      "type": "VEC2"
    },
    {
      "bufferView": 0,
      "componentType": 5125,
      "count": 103428,
      "type": "SCALAR"
    },
    {
      "bufferView": 2,
      "byteOffset": 921552,
      "componentType": 5126,
      "count": 65534,
      "max": [
        1.5743989944458008,
        0.25937798619270325,
        0.062352001667022705
      ],
      "min": [
        0.002633000025525689,
        0.24062199890613556,
        -3.9374210834503174
      ],
      "type": "VEC3"
    },
    {
      "bufferView": 2,
      "byteOffset": 1707960,
      "componentType": 5126,
      "count": 65534,
      "max": [
        1.0,
        0.3498769700527191,
        1.0
      ],
      "min": [
        -1.0,
        -0.34986695647239685,
        -1.0
      ],
      "type": "VEC3"
    },
    {
      "bufferView": 1,
      "byteOffset": 307184,
      "componentType": 5126,
      "count": 65534,
      "max": [
        0.9999989867210388,
        1.0
      ],
      "min": [
        9.999999974752427e-07,
        -0.0
      ],
      "type": "VEC2"
    },
    {
      "bufferView": 0,
      "byteOffset": 413712,
      "componentType": 5125,
      "count": 88857,
      "type": "SCALAR"
    },
    {
      "bufferView": 2,
      "byteOffset": 2494368,
      "componentType": 5126,
      "count": 18778,
      "max": [
        1.573660969734192,
        0.25937798619270325,
        0.04222099855542183
      ],
      "min": [
        0.0033360000234097242,
        0.24062199890613556,
        -3.937201976776123
      ],
      "type": "VEC3"
    },
    {
      "bufferView": 2,
      "byteOffset": 2719704,
      "componentType": 5126,
      "count": 18778,
      "max": [
        1.0,
        0.13668696582317352,
        0.9999996423721313
      ],
      "min": [
        -1.0,
        -0.16028399765491486,
        -1.0
      ],
      "type": "VEC3"
    },
    {
      "bufferView": 1,
      "byteOffset": 831456,
      "componentType": 5126,
      "count": 18778,
      "max": [
        0.9999989867210388,
        1.0
      ],
      "min": [
        9.999999974752427e-07,
        -0.0
      ],
      "type": "VEC2"
    },
    {
      "bufferView": 0,
      "byteOffset": 769140,
      "componentType": 5125,
      "count": 21939,
      "type": "SCALAR"
    }
  ],
  "asset": {
    "extras": {
      "author": "𝔼ℕ𝔼𝔸 𝕃𝔼 𝔽𝕆ℕ𝕊 (https://sketchfab.com/enealefons)",
      "license": "CC-BY-4.0 (http://creativecommons.org/licenses/by/4.0/)",
      "source": "https://sketchfab.com/3d-models/alexandra-cardenas-code-d3-434fdf33e5bd4b5ab4a86a63990dba79",
      "title": "Alexandra Cardenas CODE D3"
    },
    "generator": "Sketchfab-12.68.0",
    "version": "2.0"
  },
  "bufferViews": [
    {
      "buffer": 0,
      "byteLength": 856896,
      "name": "floatBufferViews",
      "target": 34963
    },
    {
      "buffer": 0,
      "byteLength": 981680,
      "byteOffset": 856896,
      "byteStride": 8,
      "name": "floatBufferViews",
      "target": 34962
    },
    {
      "buffer": 0,
      "byteLength": 2945040,
      "byteOffset": 1838576,
      "byteStride": 12,
      "name": "floatBufferViews",
      "target": 34962
    }
  ],
  "buffers": [
    {
      "byteLength": 4783616,
      "uri": "scene.bin"
    }
  ],
  "images": [
    {
      "uri": "textures/Polygon_XSIPOLYCLS.material_baseColor.jpeg"
    }
  ],
  "materials": [
    {
      "doubleSided": true,
      "emissiveFactor": [
        1.0,
        1.0,
        1.0
      ],
      "name": "Polygon_XSIPOLYCLS.material",
      "pbrMetallicRoughness": {
        "baseColorTexture": {
          "index": 0
        },
        "metallicFactor": 0.0,
        "roughnessFactor": 0.6
      }
    },
    {
      "doubleSided": true,
      "emissiveFactor": [
        1.0,
        1.0,
        1.0
      ],
      "emissiveTexture": {
        "index": 0
      },
      "name": "scene_material",
      "pbrMetallicRoughness": {
        "baseColorTexture": {
          "index": 0
        },
        "metallicFactor": 0.0,
        "roughnessFactor": 0.6
      }
    }
  ],
  "meshes": [
    {
      "name": "Object_0",
      "primitives": [
        {
          "attributes": {
            "NORMAL": 1,
            "POSITION": 0,
            "TEXCOORD_0": 2
          },
          "indices": 3,
          "material": 0,
          "mode": 4
        }
      ]
    },
    {
      "name": "Object_1",
      "primitives": [
        {
          "attributes": {
            "NORMAL": 5,
            "POSITION": 4,
            "TEXCOORD_0": 6
          },
          "indices": 7,
          "material": 1,
          "mode": 4
        }
      ]
    },
    {
      "name": "Object_2",
      "primitives": [
        {
          "attributes": {
            "NORMAL": 9,
            "POSITION": 8,
            "TEXCOORD_0": 10
          },
          "indices": 11,
          "material": 1,
          "mode": 4
        }
      ]
    }
  ],
  "nodes": [
    {
      "children": [
        1
      ],
      "matrix": [
        1.0,
        0.0,
        0.0,
        0.0,
        0.0,
        2.220446049250313e-16,
        -1.0,
        0.0,
        0.0,
        1.0,
        2.220446049250313e-16,
        0.0,
        0.0,
        0.0,
        0.0,
        1.0
      ],
      "name": "Sketchfab_model"
    },
    {
      "children": [
        2,
        3,
        4
      ],
      "name": "alexndracodeD3.obj.cleaner.materialmerger.gles"
    },
    {
      "mesh": 0,
      "name": "Object_2"
    },
    {
      "mesh": 1,
      "name": "Object_3"
    },
    {
      "mesh": 2,
      "name": "Object_4"
    }
  ],
  "samplers": [
    {
      "magFilter": 9729,
      "minFilter": 9987,
      "wrapS": 10497,
      "wrapT": 10497
    }
  ],
  "scene": 0,
  "scenes": [
    {
      "name": "Sketchfab_Scene",
      "nodes": [
        0
      ]
    }
  ],
  "textures": [
    {
      "sampler": 0,
      "source": 0
    }
  ]
}
